<?xml version="1.0" encoding="UTF-8"?>
<svg id="Layer_1" xmlns="http://www.w3.org/2000/svg" viewBox="0 0 1004.9 385.67">
  <defs>
    <style>
      .cls-1 {
        fill: #3e464e;
      }

      .cls-2, .cls-3, .cls-4, .cls-5, .cls-6, .cls-7, .cls-8, .cls-9, .cls-10, .cls-11, .cls-12, .cls-13, .cls-14, .cls-15, .cls-16 {
        fill: none;
      }

      .cls-2, .cls-7, .cls-10 {
        stroke: #b28abf;
      }

      .cls-2, .cls-11, .cls-12, .cls-13, .cls-14 {
        stroke-miterlimit: 10;
        stroke-width: 4px;
      }

      .cls-3, .cls-4, .cls-5, .cls-6, .cls-7, .cls-8, .cls-9, .cls-10, .cls-15, .cls-16 {
        stroke-linecap: round;
        stroke-linejoin: round;
      }

      .cls-3, .cls-4, .cls-7, .cls-15, .cls-16 {
        stroke-width: 3px;
      }

      .cls-3, .cls-8, .cls-12 {
        stroke: #eba938;
      }

      .cls-4, .cls-9, .cls-13 {
        stroke: #e9283a;
      }

      .cls-5, .cls-6, .cls-8, .cls-9, .cls-10 {
        stroke-width: 2px;
      }

      .cls-5, .cls-11, .cls-15 {
        stroke: #a5d38e;
      }

      .cls-6, .cls-14, .cls-16 {
        stroke: #7c86c2;
      }

      .cls-17 {
        fill: #fff;
      }
    </style>
  </defs>
  <g>
    <g>
      <path class="cls-17" d="M695.76,362.09c-3.4,0-6.88-.15-10.33-.44-34.64-2.92-64.11-19.06-87.59-47.98-25.39-30.88-36.39-69.26-32.62-114,3.59-42.64,19.83-78.18,48.27-105.64.06-.05.11-.11.17-.16,25.28-23.67,54.06-35.67,85.55-35.67,3.53,0,7.14.15,10.74.46,36.11,3.04,66.29,19.9,89.69,50.1.04.05.07.09.11.14,23.58,31.19,33.67,69.11,29.99,112.72-3.83,45.43-21.36,81.76-52.1,107.99-24.8,21.56-52.34,32.48-81.86,32.48ZM699.98,113.29c-17.96,0-33.75,7.5-48.27,22.93-16.65,17.57-25.91,40.03-28.32,68.7-2.51,29.84,3.15,53.86,17.32,73.45,12.62,17.41,28.1,26.66,47.31,28.28,2.01.17,4.01.25,5.97.25,18.01,0,33.87-7.15,48.48-21.86,17.13-17.39,26.65-39.76,29.05-68.33,1.17-13.86.35-27-2.44-39.04-2.73-11.8-7.46-22.83-14.06-32.78-12.73-19.4-28.87-29.65-49.37-31.37-1.91-.16-3.82-.24-5.67-.24Z"/>
      <g>
        <path class="cls-5" d="M666.63,105.96c3.9,5.79,44.61-33.33,46.11-31.1.15.22-10.58,19.29-8.46,22.44,1.37,2.03,24.58-22.02,27.1-18.28.24.35-14.13,21.15-13.95,21.41.76,1.12,25.92-20.41,27.27-18.4.13.2-18.36,17.79-16.48,20.58,2.07,3.07,20.2-18.82,22.61-15.25.34.5-12.16,22-11.58,22.85.15.23,22.7-16.78,23.38-15.77,2.28,3.39-10.19,24.92-10.1,25.05.3.44,21.69-18.29,23.39-15.77.46.68-13.11,25.62-12.7,26.22,1.32,1.96,20.9-14.14,20.92-14.11.67,1-18.21,19.95-17.46,21.06.53.79,21.42-15.55,21.93-14.79.9,1.34-17.73,24.04-15.21,27.78s24.27-17.73,24.9-16.79c1.11,1.65-19.22,25.69-18.36,26.96,2.25,3.34,22.16-17.96,23.56-15.89.78,1.15-22.94,23.43-22.42,24.19,1.19,1.77,24.45-20.43,26.27-17.72,2.26,3.35-26.18,19.74-23.42,23.83,0,0,23.94-19.35,25.43-17.15,2.28,3.38-28.04,21.94-24.79,26.75.52.77,23.74-21.6,26.33-17.76,2.23,3.3-29.01,24.15-25.73,29.02,2,2.97,28.16-20.14,28.69-19.35,1.48,2.2-29.78,34.39-27.72,37.45,1.43,2.12,28.29-23.53,30.35-20.47,3.75,5.55-32.17,26.85-29.89,30.23,2.85,4.23,28.91-20.02,29.15-19.66,3.07,4.55-33.18,25.92-29.98,30.65.75,1.11,26.93-22.66,29.01-19.57,3.1,4.6-35.28,31.23-32.93,34.71,3.04,4.51,31.54-22.38,32.05-21.62,4.33,6.43-47.61,39.63-43.45,45.8,3.36,4.99,37.73-28.38,39.09-26.37.43.63-71.01,46.59-64.68,55.98,2.27,3.36,61.71-44.52,63.05-42.53"/>
        <path class="cls-5" d="M630.73,98.77c1.75,2.59,18.9-14.64,19.78-13.34,2.55,3.77-50.25,46.44-49.5,47.55,6.76,10.02,84.96-61.84,87.06-58.73,11.04,16.37-100.21,71.62-96.91,76.52,5.16,7.65,112.38-80.49,114.55-77.27,11.43,16.94-123.11,96.15-120.31,100.3,1.83,2.71,36.69-27.81,38.11-25.71.43.63-45.54,45.27-43.6,48.15,3.49,5.17,33.63-26.16,35.24-23.77,3.98,5.9-36.45,35.88-36.1,36.4s29.83-23.89,31.58-21.3c2.03,3.01-32.14,34.35-30.72,36.46.91,1.35,26.9-20.78,28.12-18.97,1.96,2.9-30.31,32.99-27.52,37.12,2.09,3.09,25.91-17.91,26.11-17.61.32.47-26.8,25.97-23.54,30.8.2.3,22.84-18.97,24.49-16.52,1.47,2.18-22.27,20.23-20.65,22.64,2.28,3.37,20.85-17.91,22.64-15.27,2.42,3.59-22.54,19.3-19.97,23.11.05.08,23.04-17.98,24.17-16.3.08.12-22.49,19.71-20.63,22.47,1.41,2.1,22.76-15.68,22.91-15.45.24.35-19.15,29.12-18.65,29.86.34.5,21.08-15.87,21.84-14.73.95,1.4-13.97,20.1-11.74,23.41,1.16,1.72,19.27-14.86,20.13-13.58,1.27,1.88-13.01,24.8-11.7,26.74,2.2,3.26,18.99-15.47,20.22-13.64,2.05,3.04-11.23,20.56-9.54,23.06.78,1.16,19.74-16.3,21.12-14.25,2.29,3.4-11.41,24-10.96,24.66,1.66,2.46,24.96-17.27,25.17-16.97,2.15,3.19-16.32,17.14-15.25,18.72,2,2.97,19.77-18.77,22.29-15.03.61.9-20.16,16.39-18.08,19.48.27.4,24.28-18.95,25.47-17.18,1.32,1.96-12.78,19.42-11.41,21.46,2.08,3.09,28.17-23.4,30.21-20.38,1.29,1.92-21.93,19.7-19.36,23.51,1.83,2.71,35.28-32.52,39.33-26.53,2.66,3.95-24.62,26.26-23.94,27.26,1.14,1.69,109.4-80.8,112.65-75.99,5.27,7.81-94.52,67.84-89.33,75.54,3.34,4.95,66.64-59.75,73.5-49.58.01.02-45.28,33.42-42.29,37.84,1.44,2.13,15.63-13.52,17.01-11.47"/>
      </g>
      <g>
        <path class="cls-15" d="M671.11,104.28c1.71,2.97,47.31-31.24,49.01-28.29.81,1.4-16.48,20.33-15.65,21.78,1.09,1.9,31.05-20.55,32.18-18.58.87,1.5-17.42,20.14-16.54,21.66.98,1.7,26.47-17.54,27.45-15.85.86,1.49-16.44,20.2-15.66,21.55.83,1.44,27.29-17.7,28.13-16.24s-18.82,20.43-17.95,21.94c.83,1.43,25.55-16.6,26.35-15.21s-18.47,20.32-17.58,21.87,22.71-14.96,23.51-13.57-16.84,20.14-16.09,21.45c.81,1.4,22.48-14.71,23.23-13.41s-14.95,18.77-14.19,20.09c.81,1.4,21.69-14.52,22.56-13.02.78,1.35-18.02,20.36-17.21,21.78s21.06-14.05,21.88-12.63-17.58,21.61-16.8,22.97c.9,1.55,21.2-14.02,21.97-12.68.88,1.52-21.27,22.79-20.39,24.33.83,1.43,26.41-17.28,27.29-15.76,1.15,1.99-25.03,24.57-23.96,26.43.94,1.62,24.05-16,24.97-14.42,1.1,1.91-23.29,24.04-22.31,25.73.87,1.51,26.5-17.41,27.42-15.83,1.21,2.1-27,25.71-25.9,27.61.92,1.59,25.71-16.83,26.57-15.34,1.2,2.08-29.21,26.74-28.02,28.8.96,1.66,29.67-19.36,30.64-17.69,1.18,2.05-29.56,27.14-28.39,29.16,1.01,1.74,27.92-18.39,28.91-16.69,1.51,2.61-36.09,30.69-34.66,33.17,1.15,1.99,31.46-20.72,32.57-18.8,1.53,2.65-37.76,30.54-36.17,33.3,1.27,2.19,32.33-21.29,33.47-19.32,1.73,2.99-42.59,33.61-41.01,36.34,1.28,2.21,39.27-25.66,40.56-23.42,2.1,3.65-56.79,40.7-54.67,44.35,1.63,2.82,48.66-32.05,50.37-29.08"/>
        <path class="cls-15" d="M636.57,94.38c.81,1.41,22.34-14.77,23.15-13.37,2.17,3.77-55.18,39.11-53.01,42.86,3.04,5.26,85.14-56.6,88.36-51.02,3.8,6.59-103.43,63.66-99.96,69.66,4.22,7.3,112.9-74.16,116.79-67.43,4.65,8.05-128.5,75.44-123.82,83.54,1.71,2.96,47.38-31.2,49.05-28.32,2.02,3.5-55.5,39.39-53.36,43.1,1.28,2.22,37.11-24.42,38.41-22.18,1.8,3.11-43.47,33.83-41.69,36.91,1.25,2.17,35.63-23.12,36.73-21.21,1.64,2.85-39.82,31.35-38.34,33.93,1.04,1.8,31.07-20.41,32.14-18.55,1.38,2.39-31.55,29.09-30.34,31.19,1.1,1.9,27.74-18.45,28.79-16.62,1.31,2.27-29.37,27.8-28.15,29.91,1,1.73,26.16-17.45,27.18-15.69,1.09,1.89-27.17,25.31-26.08,27.2.99,1.72,25.73-16.88,26.61-15.36,1.16,2.01-26.86,25.42-25.67,27.48.94,1.63,26.04-17.06,26.91-15.54,1.03,1.78-25.07,24.78-24.04,26.57.85,1.47,22.82-15.08,23.65-13.65.94,1.62-21.99,22.44-21.05,24.08.79,1.36,23.29-15.5,24.18-13.96.94,1.63-19.5,22.61-18.62,24.14.76,1.31,21.71-14.29,22.47-12.97.88,1.53-18.46,21.33-17.61,22.81s21.27-14.03,22.03-12.72c.69,1.2-14.55,18.48-13.84,19.7.82,1.41,20.9-13.94,21.71-12.53.93,1.6-18.88,20.95-17.97,22.53.74,1.29,23.84-15.42,24.56-14.18s-17.79,19.88-16.91,21.4c.83,1.44,21.2-13.93,21.93-12.66.64,1.11-11.35,18.26-10.7,19.38.82,1.42,22.92-15.08,23.72-13.69.69,1.2-14.68,19.58-13.95,20.84.88,1.52,23.23-15.25,24.02-13.87s-15.42,19.93-14.6,21.34c.93,1.61,29.06-19.12,30.07-17.36.88,1.52-18.05,20.17-17.27,21.52,1.1,1.91,31.49-20.96,32.69-18.88.87,1.5-17.86,20.56-16.96,22.12,4.67,8.08,120.28-79.78,124.75-72.03,3.62,6.27-108.14,66.63-104.07,73.7,3.21,5.56,89.71-59.2,92.92-53.65,2.43,4.21-69.45,45.83-66.86,50.31,1.35,2.35,40.42-26.96,41.99-24.24"/>
      </g>
      <path class="cls-11" d="M695.76,353.09c-3.15,0-6.38-.14-9.58-.41-32.11-2.71-59.48-17.74-81.36-44.68-23.89-29.05-34.2-65.25-30.64-107.57,3.4-40.4,18.73-74.02,45.55-99.93,23.63-22.12,50.34-33.3,79.46-33.3,3.28,0,6.64.14,9.98.42,33.5,2.82,61.54,18.52,83.33,46.65,22.24,29.42,31.73,65.26,28.25,106.59-3.62,43.01-20.12,77.31-49.03,101.94-23.08,20.08-48.66,30.28-75.97,30.28ZM699.98,104.29c-20.58,0-38.51,8.43-54.82,25.76-17.84,18.82-28.18,43.75-30.74,74.12-2.67,31.63,3.73,58.37,19,79.48,14.26,19.66,31.87,30.12,53.84,31.97,2.26.19,4.52.29,6.72.29,20.53,0,38.48-8.02,54.86-24.51,18.43-18.72,29.08-43.59,31.64-73.91,1.25-14.8.36-28.87-2.64-41.83-2.98-12.85-8.13-24.87-15.33-35.72-14.33-21.83-32.68-33.39-56.11-35.37-2.16-.18-4.32-.27-6.43-.27Z"/>
    </g>
    <g>
      <path class="cls-17" d="M957.56,385.67c-.98,0-1.96-.1-2.94-.29l-29.52-5.9c-6.41-1.28-11.25-6.57-11.97-13.06l-6.37-57.73c-4.29-34.14-11.05-46.93-14.69-51.52-.14-.17-.27-.35-.4-.53-4.65-6.4-15.44-11.45-31.2-14.6l-23.77-4.75-20.99,105.03c-.78,3.9-3.08,7.33-6.39,9.54-2.48,1.66-5.38,2.52-8.32,2.52-.98,0-1.96-.1-2.94-.29l-26.2-5.24c-8.12-1.62-13.39-9.52-11.77-17.65l51.96-260.04c1.42-7.13,7.69-12.06,14.69-12.06.97,0,1.96.1,2.96.29l85.91,17.17c25.18,5.03,45.73,13.63,61.06,25.54,23.34,18.3,32.45,43.93,26.41,74.15-4.12,20.62-13.61,36.74-28.21,47.91-7.98,6.1-17.59,10.82-29.04,14.22,5.68,9.29,9.47,20.66,11.29,33.9l15.25,96.02c.77,4.85-.88,9.77-4.42,13.17-2.82,2.71-6.56,4.18-10.39,4.18ZM871.78,192.32c11.71,2.34,22.15,3.52,31.05,3.52,2.13,0,4.21-.07,6.17-.2,8.94-.62,16.51-2.89,22.5-6.74.14-.09.29-.18.43-.27,3.84-2.29,7.19-5.38,10.27-9.45,2.87-3.81,4.68-7.71,5.52-11.92,1.54-7.73-.2-14.07-5.67-20.57-.03-.04-.06-.08-.09-.11-6.87-8.34-17.29-13.81-31.83-16.72l-49.97-9.98-13.48,67.43,25.09,5.01Z"/>
      <g>
        <path class="cls-10" d="M916.59,228.23c3.62,5.37,61.26-57.31,68.67-46.32,2.31,3.43-55.82,37.92-51.41,44.47,4.19,6.21,43.65-39.2,48.18-32.5"/>
        <path class="cls-10" d="M848.29,102.9c1.8,2.67,28.18-19.84,28.57-19.27,1.53,2.27-7.26,20.28-5.44,22.97.4.6,24.31-18.62,25.34-17.09.41.61-11.8,17.16-10.1,19.67.33.5,25.66-22.25,27.96-18.86.7,1.04-15.77,20.47-14.83,21.85.44.65,23.88-19.2,25.31-17.07.43.64-11.38,18.31-11.06,18.79.4.6,23.65-16.55,23.93-16.14.05.07-15.07,17.79-12.88,21.05.35.53,22.49-19.98,24.72-16.68,1.99,2.95-19.2,15.65-16.97,18.95,1.96,2.9,21.97-18.08,23.48-15.84.18.27-16.77,18.62-14.56,21.89,1.68,2.5,20.28-15.48,21.11-14.24,1.24,1.84-18.48,16.4-16.58,19.22,2.14,3.17,20.73-18.58,22.86-15.42.5.75-18.52,16.01-16.27,19.36,2.14,3.17,22.56-17.33,23.54-15.88,1.6,2.37-19.46,19.42-18.44,20.94,2.18,3.23,20.32-18.7,22.64-15.27,1.33,1.97-21.96,21.35-21.5,22.02,1.05,1.56,24.21-16.62,24.34-16.42,1.02,1.52-23.43,24.94-20.79,28.85.62.92,24.99-20.1,26.49-17.87,3.02,4.47-30.88,21.72-27.67,26.49,2.58,3.82,26.07-23.7,28.9-19.5,1.31,1.94-47.34,43.2-44.48,47.43,4.39,6.5,40.04-34.9,43.7-29.47"/>
        <path class="cls-10" d="M826.35,219.24c1.99,2.95,21.87-16.41,22.64-15.27.12.17-4.46,16.14-2.79,18.61,1.12,1.67,19.69-17.75,21.76-14.68.2.29-10,18.43-9.85,18.65.72,1.07,24.73-19.46,26.02-17.55.12.18-16.02,16.59-14.31,19.12,2.25,3.33,22.06-20.51,24.67-16.64.34.5-12.09,21.95-11.51,22.8.24.36,35.13-25.99,36.19-24.41,3.29,4.87-21.35,32.37-21.22,32.55.24.35,17.55-14.76,18.9-12.75.4.59-9.31,23.17-8.95,23.69,1.22,1.81,19.13-12.94,19.15-12.91.65.97-17.49,19.51-16.76,20.58.51.76,20.57-14.93,21.06-14.21.95,1.41-19.54,24.95-16.88,28.9,2.45,3.64,24.25-17.71,24.88-16.78,1.18,1.76-21.25,26.93-20.33,28.29,2.2,3.26,21.66-17.55,23.02-15.53.79,1.17-23.41,23.73-22.89,24.51,1.13,1.68,23.36-19.5,25.1-16.93,2.22,3.29-25.66,19.49-22.94,23.51,0,0,22.45-18.14,23.84-16.08,2.21,3.27-26.94,21.42-23.8,26.08.48.71,21.99-19.99,24.38-16.44,2.1,3.11-26.89,23.13-23.8,27.71,1.82,2.7,25.78-18.43,26.26-17.71,1.33,1.97-25.36,31.86-23.5,34.61,1.25,1.85,25.01-20.76,26.81-18.09,3.18,4.71-26.34,23.66-24.4,26.53,2.43,3.6,24.59-17.03,24.8-16.72,2.46,3.64-25.29,21.97-22.73,25.76.61.91,21.82-18.42,23.54-15.88s-16.46,20.71-15.12,22.69c1.7,2.52,16.91-12.03,17.2-11.6,1.1,1.63-.33,14.44.73,16,.19.29.5-.51.58-.39"/>
        <path class="cls-10" d="M825.75,75.49c.08.12,2.47-1.75,2.51-1.69.69,1.03-5.67,17.55-5.47,17.85,1.57,2.33,19.7-14.35,20.19-13.62,3.22,4.77-24.63,25.69-23.67,27.12,1.62,2.41,36.38-26.02,37.07-25,4.37,6.48-40.09,43.88-39.02,45.47,1.42,2.1,27.86-21.17,28.96-19.53.36.54-36.73,39.96-35.08,42.4,3.3,4.89,31.93-24.83,33.46-22.57,3.98,5.9-36.45,35.87-36.09,36.4s30.41-24.36,32.19-21.71c2.24,3.33-36.52,36.98-34.95,39.32,1,1.48,29.6-22.86,30.94-20.87,2.39,3.54-39.79,38.06-36.39,43.1,2.48,3.68,30.88-21.35,31.12-20.99.42.63-39.07,31.9-34.73,38.35.26.38,28.92-24,31.01-20.91s-33.59,26.43-31.31,29.82c3.91,5.8,36.96-31.55,40.02-27,4.52,6.71-47.16,31.11-42.37,38.22.12.18,52.93-41.41,55.58-37.49.19.29-61.35,40.22-56.85,46.9,1.95,2.89,31.28-21.55,31.49-21.24.39.58-38.83,41.71-38.01,42.93.48.72,30.3-22.82,31.4-21.18,1.77,2.63-36.28,30.94-32.09,37.14,1.71,2.54,29-22.31,30.27-20.42,2.46,3.64-38.83,39.58-36.3,43.33,3.29,4.87,28.77-23.39,30.62-20.65,4.28,6.34-37.48,34.31-33.96,39.53,1.15,1.7,29.07-23.98,31.1-20.98,3.1,4.6-20.39,29.73-19.79,30.61,1.02,1.52,16.31-11.27,16.43-11.08,1.01,1.5-4.02,10.06-3.51,10.8.21.31.42-.85.68-.46"/>
      </g>
      <g>
        <path class="cls-7" d="M915.05,229.57c2.24,3.87,64.47-42.32,66.68-38.5,1.44,2.5-34.74,28.51-33.39,30.86.62,1.07,17.8-11.69,18.41-10.63"/>
        <path class="cls-7" d="M849.8,102.28c1.05,1.82,29.85-19.64,30.89-17.84.74,1.28-15.25,20.22-14.46,21.59.97,1.68,29.92-19.55,30.9-17.84.79,1.36-14.48,18.88-13.72,20.2,1.04,1.81,28.52-19.05,29.64-17.11.68,1.17-13.3,18.87-12.53,20.2,1.03,1.78,28.3-18.83,29.38-16.96.72,1.25-13.15,19.1-12.43,20.36.93,1.61,23.05-15.3,23.91-13.81.65,1.13-12.89,18.64-12.15,19.92.92,1.6,24.1-15.91,24.96-14.41.72,1.25-14.65,19.14-13.85,20.52.86,1.48,25.12-16.46,25.97-14.99.75,1.29-14.97,19.39-14.23,20.65.87,1.51,21.26-14.31,22.14-12.78.78,1.35-16.72,20.19-15.94,21.54.82,1.42,23.29-15.21,24.05-13.88,1,1.72-20.75,21.86-19.79,23.51.9,1.55,22.47-15.03,23.36-13.49.99,1.71-22.97,23.47-22,25.15s25.23-16.77,26.19-15.12c1.25,2.17-29.69,26.71-28.42,28.91.99,1.72,28.78-18.88,29.76-17.18"/>
        <path class="cls-7" d="M824.46,220.74c.97,1.68,26.98-17.8,27.95-16.13.61,1.05-9.67,16.88-9.04,17.97.92,1.59,26-17.21,26.95-15.56.73,1.26-13.18,18.01-12.43,19.29.99,1.72,26.74-17.72,27.73-16.01.79,1.38-14.4,19.17-13.68,20.41,1.07,1.85,34.28-22.29,35.36-20.42,1.01,1.74-23.91,22.98-22.87,24.78,3.48,6.02,100.68-65.9,104.04-60.07,3.17,5.49-97.3,59.5-93.67,65.8.7,1.22,18.1-11.92,18.74-10.82s-11.7,17.51-11.1,18.56c.71,1.23,19.59-12.82,20.24-11.69.69,1.2-12.82,17.69-12.12,18.9.76,1.31,20.23-13.54,21.03-12.14s-18.07,20.38-17.25,21.8,20.46-13.65,21.25-12.27c.84,1.46-18.89,22.28-18.07,23.7.88,1.52,20.72-13.71,21.47-12.4.91,1.58-22.38,23.36-21.46,24.95.79,1.36,25.23-16.5,26.06-15.05,1.15,1.99-24.95,24.53-23.88,26.38.86,1.5,22.2-14.78,23.05-13.31,1.06,1.83-21.96,23.36-21.02,24.98.79,1.37,24.26-15.93,25.09-14.49,1.12,1.94-24.36,24.38-23.34,26.13.83,1.43,23.06-15.11,23.84-13.76,1.07,1.86-25.07,24.65-24.01,26.49.84,1.46,26.48-17.26,27.33-15.78,1,1.73-23.68,24.17-22.7,25.87.87,1.5,23.96-15.78,24.8-14.32,1.23,2.13-27.9,26.57-26.73,28.59.95,1.65,26.32-17.32,27.24-15.73.85,1.47-17.26,20.33-16.37,21.87.65,1.13,16.49-10.87,17.08-9.86.42.72-1.29,12.53-.91,13.19.1.17,5.07-3.16,5.17-2.99"/>
        <path class="cls-7" d="M826.77,75.06c.05.08,1.89-1.2,1.94-1.12.54.93-6.62,14.84-6.08,15.77.7,1.21,21.24-13.98,21.98-12.69,1.13,1.95-25.83,24.49-24.8,26.27,1.37,2.37,36.42-23.94,37.68-21.76,1.67,2.9-42.1,32.48-40.42,35.39,2.04,3.53,56.23-37.06,58.22-33.61,2.27,3.93-63.11,43.18-60.71,47.34,1.03,1.79,29.94-19.69,30.98-17.89,1.52,2.64-35.69,29.96-34.18,32.58,1.14,1.97,32.65-21.17,33.65-19.43,1.57,2.72-37.78,30.32-36.35,32.78,1.01,1.76,30.41-19.98,31.46-18.16,1.44,2.5-33.27,29.97-32.01,32.16,1.14,1.98,28.9-19.22,30-17.32,1.47,2.55-34.16,30.21-32.79,32.59,1.1,1.9,28.78-19.19,29.89-17.26,1.31,2.26-34.04,28.77-32.73,31.04,1.14,1.97,29.55-19.38,30.56-17.64,1.46,2.54-36.1,30.03-34.59,32.63,1.13,1.96,30.97-20.32,32.03-18.49,1.38,2.38-36.39,30.51-35.01,32.91,1.72,2.98,47.24-31.12,48.91-28.24,1.97,3.42-54.58,38.84-52.59,42.29,1.01,1.76,29.9-19.9,31.04-17.92,1.44,2.5-34.79,30.34-33.43,32.69,1.01,1.75,29.06-19.12,30.07-17.36,1.42,2.46-34.94,29.64-33.56,32.02,1.13,1.96,29.12-19.2,30.15-17.41,1.21,2.1-31.65,27.12-30.42,29.27,1.12,1.95,29.02-19.33,30.13-17.4,1.56,2.71-37.4,30.2-35.86,32.86,1.03,1.78,32.08-20.81,33.07-19.09,1.31,2.26-36.66,29.28-35.13,31.92,1.14,1.97,29.18-19.16,30.18-17.42,1.27,2.2-32.22,28.83-30.93,31.06,1.08,1.87,30.06-19.79,31.11-17.96.91,1.58-22.39,23.5-21.43,25.16.63,1.1,16.43-10.81,17-9.82"/>
      </g>
      <path class="cls-2" d="M957.56,376.67c-.39,0-.79-.04-1.18-.12l-29.52-5.9c-2.56-.51-4.5-2.63-4.79-5.23l-6.38-57.84c-3.47-27.68-9.05-46.56-16.59-56.02-.05-.07-.11-.14-.16-.21-6.09-8.38-18.44-14.48-36.72-18.13l-32.59-6.51-22.75,113.85c-.31,1.56-1.23,2.93-2.55,3.82-.99.66-2.15,1.01-3.33,1.01-.39,0-.79-.04-1.18-.12l-26.2-5.24c-3.25-.65-5.36-3.81-4.71-7.06l51.96-260.04c.57-2.85,3.08-4.83,5.88-4.83.39,0,.79.04,1.18.12l85.91,17.17c23.8,4.76,43.08,12.77,57.3,23.82,20.75,16.27,28.51,38.23,23.11,65.28-3.68,18.42-12.04,32.73-24.85,42.53-9.75,7.46-22.93,12.77-39.29,15.85,1.85,1.7,3.39,3.45,4.62,5.25,6.96,8.95,11.5,20.89,13.49,35.49l15.26,96.12c.31,1.94-.35,3.91-1.77,5.27-1.13,1.08-2.62,1.67-4.16,1.67ZM870.02,201.15c12.28,2.46,23.33,3.7,32.82,3.7h0c2.34,0,4.62-.08,6.79-.22,10.47-.72,19.47-3.47,26.75-8.15.06-.04.12-.07.17-.11,4.79-2.85,9.11-6.81,12.84-11.76,3.65-4.84,6.06-10.08,7.16-15.58,2.07-10.37-.41-19.57-7.6-28.13-8.17-9.91-20.62-16.58-37.05-19.86l-58.8-11.75-17,85.09,33.92,6.78Z"/>
    </g>
    <g>
      <path class="cls-17" d="M323.75,374.1c-3.4,0-6.88-.15-10.34-.44-34.64-2.92-64.11-19.06-87.59-47.98-25.4-30.88-36.39-69.26-32.62-114,3.59-42.64,19.83-78.19,48.27-105.64.06-.05.11-.11.17-.16,25.28-23.67,54.06-35.67,85.55-35.67,3.53,0,7.14.15,10.74.46,36.12,3.04,66.29,19.9,89.69,50.11.04.05.07.09.11.14,23.58,31.19,33.67,69.11,29.99,112.72-3.83,45.43-21.36,81.76-52.1,107.99-24.8,21.55-52.34,32.48-81.86,32.48ZM327.97,125.29c-17.96,0-33.75,7.5-48.27,22.93-16.65,17.57-25.91,40.03-28.32,68.7-2.51,29.84,3.15,53.87,17.32,73.45,12.62,17.41,28.1,26.66,47.31,28.28,2.01.17,4.01.25,5.97.25,18.01,0,33.87-7.15,48.48-21.86,17.13-17.4,26.65-39.76,29.05-68.33,1.17-13.86.35-27-2.44-39.05-2.73-11.79-7.46-22.82-14.06-32.77-12.73-19.4-28.87-29.65-49.37-31.38-1.91-.16-3.81-.24-5.67-.24Z"/>
      <g>
        <path class="cls-6" d="M294.62,117.96c3.9,5.79,44.61-33.33,46.11-31.1.15.22-10.58,19.29-8.46,22.43,1.37,2.03,24.58-22.02,27.1-18.28.24.35-14.13,21.15-13.95,21.41.76,1.12,25.92-20.41,27.27-18.4.13.2-18.36,17.79-16.48,20.58,2.07,3.07,20.2-18.82,22.61-15.25.34.5-12.16,22-11.58,22.85.15.23,22.7-16.78,23.38-15.77,2.28,3.39-10.19,24.93-10.1,25.05.3.44,21.69-18.29,23.39-15.77.46.68-13.11,25.62-12.7,26.23,1.32,1.96,20.9-14.14,20.92-14.11.67,1-18.21,19.95-17.46,21.06.53.79,21.42-15.55,21.93-14.79.9,1.34-17.73,24.04-15.21,27.78s24.27-17.73,24.9-16.79c1.11,1.65-19.22,25.69-18.36,26.96,2.25,3.34,22.16-17.96,23.56-15.89.78,1.15-22.94,23.43-22.42,24.19,1.19,1.77,24.45-20.43,26.27-17.72,2.26,3.35-26.18,19.74-23.42,23.83,0,0,23.94-19.35,25.43-17.15,2.28,3.38-28.04,21.94-24.79,26.75.52.77,23.74-21.6,26.33-17.76,2.23,3.3-29.01,24.15-25.73,29.02,2,2.97,28.16-20.14,28.69-19.35,1.48,2.2-29.78,34.39-27.72,37.45,1.43,2.12,28.29-23.53,30.35-20.47,3.75,5.55-32.17,26.85-29.89,30.23,2.85,4.23,28.91-20.02,29.15-19.66,3.07,4.55-33.18,25.92-29.98,30.66.75,1.11,26.93-22.66,29.01-19.57,3.1,4.6-35.28,31.23-32.93,34.71,3.04,4.51,31.54-22.38,32.05-21.62,4.33,6.43-47.61,39.63-43.45,45.8,3.36,4.99,37.73-28.38,39.09-26.37.43.63-71.01,46.59-64.68,55.98,2.27,3.36,61.71-44.52,63.05-42.53"/>
        <path class="cls-6" d="M258.72,110.78c1.75,2.59,18.9-14.64,19.77-13.34,2.55,3.77-50.25,46.44-49.5,47.55,6.76,10.02,84.96-61.84,87.07-58.73,11.04,16.37-100.21,71.62-96.91,76.52,5.16,7.65,112.38-80.49,114.55-77.27,11.43,16.94-123.11,96.16-120.31,100.3,1.83,2.71,36.69-27.81,38.11-25.71.43.63-45.54,45.27-43.6,48.15,3.49,5.17,33.63-26.16,35.24-23.77,3.98,5.9-36.45,35.88-36.1,36.4s29.83-23.89,31.58-21.3c2.03,3.01-32.14,34.35-30.72,36.46.91,1.35,26.9-20.78,28.12-18.97,1.96,2.9-30.31,32.99-27.52,37.12,2.09,3.09,25.91-17.91,26.11-17.61.32.47-26.8,25.97-23.54,30.8.2.3,22.84-18.97,24.49-16.52,1.47,2.18-22.27,20.23-20.65,22.64,2.28,3.37,20.85-17.91,22.64-15.27,2.42,3.59-22.54,19.3-19.97,23.11.05.08,23.04-17.98,24.17-16.3.08.12-22.49,19.71-20.63,22.47,1.41,2.1,22.76-15.68,22.91-15.45.24.35-19.15,29.12-18.65,29.86.34.5,21.08-15.87,21.84-14.73.95,1.4-13.97,20.1-11.74,23.41,1.16,1.72,19.27-14.86,20.13-13.58,1.27,1.88-13.01,24.8-11.7,26.74,2.2,3.26,18.99-15.47,20.22-13.64,2.05,3.04-11.23,20.56-9.54,23.06.78,1.16,19.74-16.3,21.12-14.25,2.29,3.4-11.41,24-10.96,24.66,1.66,2.46,24.96-17.27,25.16-16.97,2.15,3.19-16.32,17.14-15.25,18.72,2,2.97,19.77-18.77,22.29-15.03.61.9-20.16,16.39-18.08,19.48.27.4,24.28-18.95,25.47-17.18,1.32,1.96-12.78,19.42-11.4,21.46,2.08,3.08,28.17-23.4,30.21-20.38,1.29,1.92-21.93,19.7-19.36,23.51,1.83,2.71,35.28-32.52,39.33-26.53,2.66,3.95-24.62,26.25-23.94,27.26,1.14,1.69,109.4-80.8,112.65-75.98,5.27,7.81-94.51,67.84-89.33,75.54,3.34,4.95,66.64-59.75,73.5-49.58.01.02-45.28,33.42-42.29,37.84,1.44,2.13,15.63-13.52,17.01-11.47"/>
      </g>
      <g>
        <path class="cls-16" d="M299.1,116.28c1.71,2.97,47.3-31.24,49.01-28.29.81,1.4-16.48,20.33-15.65,21.78,1.09,1.9,31.05-20.55,32.18-18.58.87,1.5-17.42,20.14-16.54,21.66.98,1.7,26.47-17.54,27.45-15.85.86,1.49-16.44,20.2-15.66,21.55.83,1.44,27.29-17.7,28.13-16.24s-18.82,20.43-17.95,21.94c.83,1.43,25.55-16.6,26.35-15.21s-18.47,20.32-17.58,21.87,22.71-14.96,23.51-13.57-16.84,20.14-16.09,21.45c.81,1.4,22.48-14.72,23.23-13.41s-14.95,18.77-14.19,20.09c.81,1.4,21.69-14.52,22.56-13.02.78,1.35-18.02,20.36-17.21,21.78s21.06-14.05,21.88-12.63-17.58,21.61-16.8,22.97c.9,1.55,21.2-14.02,21.97-12.68.88,1.52-21.27,22.79-20.39,24.33.83,1.43,26.41-17.28,27.29-15.76,1.15,1.99-25.03,24.57-23.96,26.43.94,1.62,24.05-16,24.97-14.42,1.1,1.91-23.29,24.04-22.31,25.73.87,1.51,26.5-17.41,27.42-15.83,1.21,2.1-27,25.71-25.9,27.61.92,1.59,25.71-16.83,26.57-15.34,1.2,2.08-29.21,26.74-28.02,28.8.96,1.66,29.67-19.36,30.64-17.69,1.18,2.05-29.56,27.14-28.39,29.16,1.01,1.74,27.92-18.39,28.91-16.69,1.51,2.61-36.09,30.69-34.66,33.17,1.15,1.99,31.46-20.72,32.57-18.8,1.53,2.65-37.76,30.54-36.17,33.3,1.27,2.19,32.33-21.29,33.47-19.32,1.73,2.99-42.59,33.61-41.01,36.34,1.28,2.21,39.27-25.66,40.56-23.42,2.1,3.65-56.78,40.7-54.67,44.35,1.63,2.82,48.66-32.05,50.37-29.08"/>
        <path class="cls-16" d="M264.56,106.38c.81,1.41,22.34-14.77,23.15-13.37,2.17,3.77-55.18,39.11-53.01,42.86,3.04,5.26,85.14-56.6,88.36-51.02,3.8,6.59-103.43,63.66-99.96,69.66,4.22,7.3,112.9-74.16,116.79-67.43,4.65,8.05-128.5,75.44-123.82,83.54,1.71,2.96,47.38-31.21,49.05-28.32,2.02,3.5-55.5,39.39-53.36,43.1,1.28,2.22,37.11-24.42,38.41-22.18,1.8,3.11-43.47,33.83-41.69,36.91,1.25,2.17,35.63-23.12,36.73-21.21,1.64,2.85-39.82,31.35-38.34,33.93,1.04,1.8,31.07-20.41,32.14-18.55,1.38,2.39-31.55,29.09-30.34,31.19,1.1,1.9,27.74-18.45,28.79-16.62,1.31,2.27-29.37,27.8-28.15,29.91,1,1.73,26.16-17.45,27.18-15.69,1.09,1.89-27.17,25.31-26.08,27.2.99,1.72,25.73-16.88,26.61-15.36,1.16,2.01-26.86,25.42-25.67,27.48.94,1.63,26.04-17.06,26.91-15.54,1.03,1.78-25.07,24.78-24.04,26.57.85,1.47,22.82-15.08,23.65-13.65.94,1.62-21.99,22.44-21.05,24.08.79,1.36,23.29-15.5,24.18-13.96.94,1.63-19.5,22.61-18.62,24.14.76,1.31,21.71-14.29,22.47-12.97.88,1.53-18.46,21.33-17.61,22.81s21.27-14.03,22.03-12.72c.69,1.2-14.55,18.48-13.84,19.7.82,1.41,20.9-13.94,21.71-12.53.93,1.6-18.88,20.95-17.97,22.53.74,1.29,23.84-15.42,24.56-14.18s-17.79,19.88-16.91,21.4c.83,1.44,21.19-13.93,21.93-12.66.64,1.11-11.35,18.26-10.7,19.38.82,1.42,22.91-15.08,23.72-13.69.69,1.2-14.68,19.58-13.95,20.84.88,1.52,23.23-15.25,24.02-13.87s-15.41,19.93-14.6,21.33c.93,1.61,29.05-19.12,30.07-17.36.88,1.52-18.05,20.17-17.27,21.52,1.1,1.91,31.49-20.96,32.69-18.87.87,1.5-17.86,20.56-16.96,22.12,4.67,8.08,120.28-79.78,124.75-72.03,3.62,6.27-108.14,66.63-104.07,73.7,3.21,5.56,89.71-59.2,92.92-53.65,2.43,4.21-69.45,45.83-66.86,50.31,1.35,2.35,40.42-26.96,41.99-24.24"/>
      </g>
      <path class="cls-14" d="M323.75,365.1c-3.15,0-6.38-.14-9.58-.41-32.1-2.7-59.48-17.74-81.36-44.68-23.89-29.05-34.2-65.25-30.64-107.57,3.4-40.41,18.73-74.03,45.55-99.93,23.63-22.12,50.34-33.3,79.46-33.3,3.28,0,6.64.14,9.98.42,33.5,2.82,61.54,18.52,83.33,46.65,22.24,29.42,31.73,65.26,28.25,106.59-3.62,43.01-20.12,77.31-49.03,101.94-23.08,20.08-48.66,30.28-75.97,30.28ZM327.97,116.29c-20.58,0-38.51,8.43-54.82,25.76-17.84,18.82-28.18,43.75-30.74,74.11-2.67,31.63,3.73,58.38,19,79.48,14.26,19.66,31.87,30.12,53.84,31.97,2.26.19,4.52.29,6.72.29,20.53,0,38.48-8.02,54.86-24.51,18.43-18.72,29.08-43.59,31.64-73.91,1.25-14.8.36-28.87-2.64-41.83-2.98-12.85-8.13-24.87-15.33-35.72-14.33-21.83-32.68-33.39-56.12-35.37-2.16-.18-4.32-.27-6.43-.27Z"/>
    </g>
    <g>
      <path class="cls-17" d="M137.11,362.95c-35.86,0-67.58-13.93-94.3-41.41C14.41,292.39,0,255.53,0,211.98s13.36-78.46,39.7-107.78c27.26-30.03,61.38-45.23,101.47-45.23,15.52,0,30.66,2.42,44.99,7.2,14.07,4.69,28.04,11.67,41.51,20.72,4.15,2.79,6.63,7.45,6.63,12.45v34.16c0,6.03-3.61,11.47-9.16,13.82-1.88.79-3.87,1.18-5.83,1.18-3.83,0-7.61-1.47-10.46-4.25-7.3-7.1-15.85-13.33-25.39-18.51-14.63-7.79-29.43-11.74-43.98-11.74-21.96,0-40.46,9.22-56.55,28.19-8.27,9.65-14.46,20.23-18.44,31.48-4.03,11.41-6.08,23.84-6.08,36.95,0,26.97,8.1,49.42,24.75,68.65,15.93,18.62,34.55,27.63,56.99,27.63,10.72,0,21.94-2.22,33.34-6.61,11.78-4.53,24.11-11.73,36.65-21.39,2.67-2.06,5.9-3.12,9.16-3.12,2.25,0,4.52.51,6.62,1.54,5.13,2.52,8.38,7.74,8.38,13.46v32.81c0,5.52-3.04,10.6-7.9,13.21-32.29,17.35-62.33,26.14-89.29,26.14Z"/>
      <g>
        <path class="cls-9" d="M101.46,107.84c4.11,6.09,47.07-35.16,48.65-32.82.15.23-11.43,19.71-9.24,22.96,1.47,2.18,26.51-23.72,29.22-19.71.25.37-15.36,21.96-15.18,22.24.82,1.21,27.97-22.04,29.44-19.86.14.21-19.82,18.53-17.82,21.49,2.26,3.34,22.16-20.6,24.78-16.71.34.51-12.59,22.27-12.01,23.13.17.25,24.61-18.2,25.35-17.1,2.22,3.29-9.38,24.39-9.3,24.51.31.46,22.69-19.15,24.47-16.51.43.63-11.03,24.28-10.65,24.84.61.91,8.87-6.01,8.88-5.99.3.45-4.04,11.28-3.7,11.78.1.15,3.4-2.5,3.5-2.36"/>
        <path class="cls-9" d="M64.71,100.83c1.73,2.57,18.74-14.52,19.61-13.23,2.54,3.76-50.02,46.3-49.28,47.4,6.84,10.13,85.96-62.57,88.08-59.41,11.15,16.53-101.22,72.24-97.89,77.18,5.26,7.79,114.48-81.99,116.69-78.71,11.59,17.18-124.96,97.32-122.12,101.52,1.85,2.75,37.13-28.14,38.57-26.01.43.63-45.48,45.23-43.54,48.11,3.43,5.09,33.1-25.75,34.69-23.4,3.89,5.77-35.48,35.24-35.13,35.75s29.11-23.32,30.82-20.79c1.97,2.92-30.86,33.58-29.48,35.63.89,1.32,26.3-20.32,27.5-18.55,1.91,2.83-29.15,32.37-26.44,36.39,2.08,3.08,25.83-17.86,26.03-17.56.31.47-26.37,25.77-23.15,30.54.21.31,23.27-19.33,24.96-16.83,1.49,2.21-22.61,20.42-20.96,22.85,2.35,3.49,21.6-18.55,23.45-15.81,2.48,3.68-23.26,19.65-20.62,23.55.05.08,24.17-18.86,25.35-17.1.08.12-23.61,20.3-21.68,23.18,1.51,2.24,24.25-16.71,24.41-16.47.25.37-20.44,29.95-19.92,30.72.37.55,23.1-17.39,23.94-16.15,1.02,1.51-16.05,21.13-13.65,24.7,1.3,1.92,21.67-16.7,22.64-15.27,1.37,2.03-15.35,26.16-13.94,28.25,2.48,3.68,21.52-17.53,22.92-15.46,2.26,3.35-13.93,22-12.06,24.76.88,1.3,22.18-18.31,23.73-16.01,2.53,3.75-14.08,25.71-13.59,26.43,1.83,2.71,27.25-18.86,27.47-18.53,2.4,3.56-18.83,18.57-17.64,20.33,2.17,3.21,21.55-20.43,24.28-16.38.66.98-22.47,17.53-20.19,20.9.28.42,25.81-20.14,27.07-18.26,1.44,2.13-14.87,20.57-13.37,22.79,2.1,3.11,28.41-23.59,30.46-20.55,1.33,1.97-22.67,20.06-20.04,23.97,1.67,2.48,32.4-29.85,36.11-24.36,2.44,3.62-21.97,24.59-21.35,25.51.45.67,43.44-32.09,44.73-30.17,1.77,2.62-25.49,28.72-23.75,31.3,3.18,4.71,63.45-56.89,69.99-47.21.01.02-53.68,38.11-50.2,43.27,4.01,5.95,46.36-39.58,50.21-33.87,1.47,2.18-5.96,14.52-4.45,16.76.18.27,4.16-3.33,4.4-2.97"/>
      </g>
      <g>
        <path class="cls-4" d="M106.29,105.93c1.82,3.15,50.27-33.2,52.08-30.07.85,1.48-17.92,21.06-17.04,22.59,1.18,2.04,33.53-22.19,34.75-20.06.92,1.58-18.94,20.89-18,22.51,1.07,1.86,28.97-19.19,30.03-17.34.9,1.56-17.62,20.8-16.8,22.21.91,1.58,29.73-19.3,30.65-17.7.87,1.51-19.66,20.85-18.76,22.41s27.76-18.05,28.64-16.53c.78,1.36-18.72,20.45-17.82,22.01s23.01-15.16,23.82-13.75c.75,1.31-14.74,19.06-14.04,20.27.49.84,13.37-8.76,13.82-7.98.42.72-2.81,12.56-2.39,13.28.18.32,4.09-2.81,4.29-2.47"/>
        <path class="cls-4" d="M70.38,96.55c.82,1.41,22.43-14.83,23.24-13.42,2.17,3.76-55.05,39.04-52.88,42.79,3.09,5.36,86.73-57.66,90.02-51.97,3.86,6.69-105.15,64.53-101.63,70.62,4.33,7.5,116.04-76.22,120.03-69.3,4.76,8.24-131.74,77.05-126.95,85.35,1.76,3.05,48.74-32.1,50.45-29.13,2.06,3.57-56.72,39.99-54.54,43.78,1.29,2.23,37.36-24.59,38.67-22.32,1.8,3.11-43.4,33.79-41.62,36.87,1.24,2.15,35.29-22.9,36.38-21.01,1.62,2.8-39.1,30.98-37.63,33.52,1.02,1.76,30.48-20.03,31.53-18.21,1.34,2.33-30.45,28.53-29.27,30.58,1.07,1.86,27.11-18.03,28.14-16.24,1.27,2.2-28.27,27.24-27.08,29.29.98,1.71,25.76-17.19,26.77-15.45,1.07,1.85-26.41,24.92-25.34,26.78.99,1.71,25.69-16.86,26.57-15.34,1.15,1.99-26.51,25.25-25.33,27.29.96,1.66,26.45-17.33,27.34-15.78,1.03,1.79-25.24,24.87-24.2,26.67.88,1.53,23.73-15.67,24.58-14.19.96,1.66-22.72,22.81-21.75,24.49.83,1.45,24.67-16.41,25.61-14.78s-20.74,23.24-19.82,24.83c.82,1.42,23.59-15.53,24.41-14.1.94,1.63-20.27,22.24-19.36,23.82s23.57-15.55,24.41-14.09c.76,1.32-16.83,19.64-16.05,20.98.92,1.59,23.52-15.68,24.43-14.1,1.01,1.75-21.48,22.26-20.48,23.98.84,1.46,26.63-17.25,27.44-15.85s-20.56,21.26-19.59,22.94,23.99-15.76,24.81-14.33c.72,1.25-14.19,19.71-13.46,20.97.92,1.59,25.6-16.85,26.5-15.3.77,1.34-17.54,21.04-16.73,22.45.97,1.67,25.61-16.81,26.49-15.29s-18.11,21.29-17.21,22.84c.98,1.7,30.71-20.21,31.78-18.35.95,1.64-20.12,21.22-19.28,22.68,1.11,1.92,31.67-21.08,32.88-18.98.89,1.55-18.64,20.95-17.71,22.56,1.64,2.84,42.35-28.08,43.92-25.36,1.04,1.81-25.48,25.61-24.3,27.64,2.97,5.15,83.03-54.79,86-49.65,2.37,4.11-67.61,44.92-65.09,49.28,2.02,3.5,60.25-40.19,62.59-36.13.75,1.3-14.48,19.04-13.79,20.24.53.92,15.46-10.13,15.98-9.22"/>
      </g>
      <path class="cls-13" d="M137.11,353.95c-33.33,0-62.89-13.02-87.85-38.69-26.71-27.42-40.26-62.17-40.26-103.29s12.58-74.14,37.39-101.76c25.45-28.04,57.33-42.24,94.78-42.24,14.55,0,28.73,2.27,42.15,6.73,13.3,4.44,26.53,11.05,39.34,19.65,1.66,1.12,2.65,2.98,2.65,4.98v34.16c0,2.41-1.44,4.59-3.67,5.53-.75.32-1.55.47-2.33.47-1.53,0-3.04-.59-4.19-1.7-7.91-7.69-17.13-14.42-27.43-20-15.93-8.49-32.16-12.81-48.22-12.81-24.76,0-45.5,10.26-63.41,31.37-8.97,10.46-15.71,22-20.06,34.31-4.37,12.37-6.59,25.81-6.59,39.94,0,28.82,9.07,53.9,26.95,74.55,17.7,20.69,38.56,30.74,63.79,30.74,11.83,0,24.14-2.43,36.58-7.21,12.59-4.84,25.68-12.47,38.91-22.66,1.07-.82,2.36-1.25,3.66-1.25.9,0,1.81.2,2.65.62,2.05,1.01,3.35,3.1,3.35,5.38v32.81c0,2.21-1.21,4.24-3.16,5.29-30.96,16.63-59.57,25.07-85.03,25.07Z"/>
    </g>
    <g>
      <path class="cls-17" d="M445.26,356.58c-3.36,0-6.64-1.13-9.3-3.23-3.12-2.47-5.14-6.07-5.6-10.02l-30.94-263.38c-.46-3.95.66-7.92,3.13-11.05s6.07-5.14,10.02-5.6l26.54-3.12c.59-.07,1.18-.1,1.77-.1,7.5,0,13.98,5.62,14.88,13.25l26.47,225.3,115.11-13.52c.59-.07,1.19-.1,1.77-.1,7.5,0,13.98,5.62,14.88,13.25l2.72,23.18c.97,8.23-4.92,15.68-13.15,16.65l-156.55,18.39c-.58.07-1.17.1-1.75.1Z"/>
      <path class="cls-8" d="M413.5,79.41c.1.15,2.65-1.89,2.7-1.82.55.81-1,14.5-.84,14.73,1.93,2.86,24.17-17.59,24.77-16.7,3.3,4.89-25.44,26.18-24.45,27.65,1.13,1.68,25.83-18.45,26.31-17.74,2.93,4.35-22.47,32.76-21.76,33.82,1.12,1.67,21.61-16.46,22.49-15.17.27.39-23.44,31.95-22.24,33.74,2.62,3.88,25.76-19.98,26.97-18.19,3.01,4.47-25.77,28.86-25.5,29.26.28.42,24.28-19.43,25.69-17.33,1.66,2.46-24.26,29.6-23.1,31.32.79,1.17,23.37-18.06,24.43-16.48,1.77,2.62-26.09,30.72-23.57,34.46,1.97,2.92,24.4-16.87,24.6-16.59.31.47-26.35,25.75-23.13,30.53.2.3,22.82-18.95,24.47-16.51,1.54,2.28-23.5,20.91-21.81,23.42,2.35,3.48,21.56-18.51,23.4-15.78,2.65,3.93-25.28,20.62-22.46,24.79.05.08,24.49-19.12,25.7-17.33.09.13-26.17,21.66-24.06,24.79,1.55,2.29,24.86-17.13,25.03-16.88.29.43-26.28,33.69-25.67,34.6.38.57,24.05-18.11,24.93-16.81,1.29,1.91-23.38,24.72-20.35,29.22,1.36,2.01,22.77-17.54,23.79-16.04,1.82,2.69-25.28,31.86-23.41,34.63,2.61,3.87,22.65-18.44,24.12-16.27,3.13,4.64-24.39,27.51-21.81,31.34.91,1.35,22.99-18.97,24.59-16.59,3.57,5.29-25.42,32.93-24.74,33.95,1.81,2.68,27.01-18.7,27.23-18.37,2.97,4.4-24.53,21.81-23.06,23.99,2.07,3.07,20.48-19.43,23.09-15.57.77,1.15-26.95,19.73-24.29,23.67.26.39,23.58-18.4,24.74-16.68,1.98,2.93-24.32,25.74-22.26,28.78,1.7,2.53,23.05-19.14,24.71-16.67,1.53,2.27-27.19,22.23-24.15,26.74,1.46,2.17,28.46-26.18,31.69-21.38,2.48,3.68-22.42,24.87-21.78,25.81.42.63,40.65-30.03,41.86-28.24,1.39,2.06-17.58,24.19-16.21,26.22,1.9,2.82,37.77-33.91,41.68-28.11,0,.01-25.5,22.68-23.68,25.38,3.27,4.85,37.45-32.03,40.59-27.38,2.38,3.53-14.97,21.52-12.52,25.16,1.9,2.82,39.96-32.38,42.48-28.65,1.27,1.89-20.81,24.02-20.39,24.64,1.53,2.26,38.91-32.43,41.78-28.18.87,1.29-22.17,22.99-19.99,26.24,3.08,4.57,27.01-20.97,28.29-19.08.58.85-1.26,15.27-.26,16.75.13.19,4.3-2.94,4.32-2.91"/>
      <path class="cls-3" d="M414.6,78.95c.06.11,2.35-1.51,2.42-1.4.44.77-2.89,12.91-2.45,13.67.89,1.53,26.33-17.37,27.27-15.75,1.17,2.03-27.14,25.16-26.08,27.01.91,1.57,24.06-15.82,24.9-14.37,1.08,1.88-24.68,23.78-23.59,25.67.91,1.58,26.31-17.25,27.2-15.7,1.1,1.9-26.72,25.03-25.56,27.05.85,1.46,24.6-16.18,25.45-14.7,1.17,2.03-25.5,24.89-24.34,26.9.93,1.61,27.29-17.66,28.12-16.23,1.23,2.13-27.97,25.37-26.86,27.3.83,1.44,25.05-16.45,25.91-14.96,1.09,1.88-22.82,24.65-21.87,26.31s23.55-15.67,24.45-14.12c1.12,1.93-23.69,24.93-22.65,26.73.9,1.55,23.41-15.63,24.33-14.05,1,1.73-24.08,23.74-23.08,25.47.93,1.61,24.16-15.85,24.98-14.42,1.13,1.95-25.92,24.95-24.76,26.96.92,1.6,25.58-16.76,26.45-15.27,1.06,1.84-26.23,25.37-25.16,27.22.87,1.51,23.35-15.42,24.19-13.97,1.03,1.78-24.9,23.91-23.86,25.7.83,1.44,24.59-16.36,25.53-14.74,1.1,1.91-24.45,25.12-23.42,26.91.83,1.43,23.72-15.61,24.55-14.17,1.09,1.88-24.85,24.55-23.8,26.38.93,1.61,23.78-15.68,24.63-14.22.91,1.58-21.89,22.2-20.96,23.81s23.68-15.79,24.6-14.2c1.22,2.11-27.44,25.24-26.24,27.31.84,1.46,26.72-17.3,27.53-15.9,1.01,1.76-26.87,24.41-25.69,26.47.93,1.61,23.81-15.64,24.63-14.22.95,1.65-21.91,23.62-20.94,25.3.88,1.53,24.69-16.26,25.56-14.76,1,1.73-25.3,24.98-24.25,26.79.88,1.53,23.31-15.31,24.12-13.92,1.14,1.98-25.84,25.16-24.69,27.16.82,1.42,25.9-17.02,26.79-15.47,1.13,1.96-25.56,23.99-24.55,25.73.81,1.4,22.77-15.19,23.66-13.66,1.02,1.77-22.57,22.92-21.51,24.75,1.44,2.5,37.19-24.66,38.57-22.27.96,1.66-22.63,24.18-21.55,26.06,1.77,3.07,49.7-32.78,51.47-29.72,1.15,1.99-29.33,25.81-28.1,27.93,1.65,2.85,49.15-32.79,51.06-29.48,1.07,1.85-24.4,24.09-23.42,25.8,1.84,3.19,50.5-33.33,52.31-30.2,1.06,1.84-26.24,24.5-25.23,26.25,1.65,2.86,48.37-32.34,50.28-29.03,1.14,1.98-25.99,25.42-24.83,27.44s33.78-21.88,34.81-20.1c.51.88-6.25,15.47-5.75,16.33.19.33,6.01-3.89,6.19-3.57"/>
      <path class="cls-12" d="M445.26,347.58c-1.34,0-2.65-.45-3.72-1.29-1.25-.99-2.05-2.43-2.24-4.01l-30.94-263.38c-.19-1.58.26-3.17,1.25-4.42s2.43-2.05,4.01-2.24l26.54-3.12c.24-.03.47-.04.71-.04,3,0,5.59,2.25,5.95,5.3l27.52,234.24,124.05-14.57c.24-.03.47-.04.71-.04,3,0,5.59,2.25,5.95,5.3l2.72,23.18c.39,3.29-1.97,6.27-5.26,6.66l-156.55,18.39c-.23.03-.47.04-.7.04Z"/>
    </g>
  </g>
  <g>
    <path class="cls-1" d="M347.33,42.27c-1.02,3.91-2.03,7.83-3.01,11.74-1.73.27-3.46.53-5.19.81,3.73-14.77,7.71-29.52,11.93-44.25,1.84-.26,3.69-.51,5.53-.76,8.06,13.04,15.88,26.16,23.47,39.36-1.74.2-3.47.41-5.21.63-2.01-3.5-4.04-7-6.08-10.48-7.15.91-14.3,1.9-21.44,2.96ZM360.2,24.88c-2.16-3.59-5.5-9.12-5.58-9.17-.04,0-.08.01-.12.02-.06.07-1.77,6.3-2.83,10.27-1.05,3.87-2.09,7.73-3.11,11.6,5.92-.87,11.84-1.69,17.77-2.45-2.03-3.43-4.07-6.85-6.13-10.27Z"/>
    <path class="cls-1" d="M396.53,5.15c13.58-1.33,23.89,6.18,24.83,19.1.94,12.93-7.83,21.44-20.32,22.66-4.98.48-9.95,1.01-14.92,1.56-1.56-13.91-3.12-27.82-4.68-41.74,5.03-.56,10.06-1.09,15.09-1.58ZM400.35,42.39c9.37-.92,16.84-6.86,15.98-17.75-.85-10.82-9.4-15.93-19.55-14.94-3.27.32-6.54.66-9.81,1.01,1.17,10.9,2.34,21.79,3.51,32.69,3.29-.35,6.58-.69,9.87-1.01Z"/>
    <path class="cls-1" d="M426.94,2.61c1.69-.12,3.38-.23,5.06-.34.9,13.97,1.81,27.94,2.71,41.91-1.62.1-3.24.21-4.87.33-.97-13.97-1.94-27.93-2.91-41.9Z"/>
    <path class="cls-1" d="M457.08,42.97c-6.18-13.75-12.58-27.44-19.2-41.07,1.9-.11,3.79-.22,5.69-.32,3.38,7.17,6.69,14.35,9.95,21.55,3.89,8.59,6.21,14.09,6.29,14.26.04,0,.08,0,.12,0,.06-.18,1.87-5.78,5-14.42,2.7-7.54,5.47-15.07,8.3-22.58,1.84-.05,3.67-.09,5.51-.13-5.5,14.12-10.77,28.28-15.82,42.48-1.94.07-3.89.15-5.83.24Z"/>
    <path class="cls-1" d="M484.56.14c1.69-.03,3.38-.05,5.07-.07.16,14,.32,28,.48,42-1.62.02-3.25.04-4.87.07-.23-14-.45-28-.68-41.99Z"/>
    <path class="cls-1" d="M504.33,7.86s-.08,0-.12,0c0,.06.11,4.86.1,10.08-.02,8.02-.03,16.04-.05,24.06-1.62,0-3.25,0-4.87,0-.04-14-.07-28-.11-42,1.71,0,3.42,0,5.13,0,8.53,11.3,16.8,22.7,24.79,34.19.04,0,.08,0,.12,0,0-.06,0-4.98.13-9.84.21-8,.41-15.99.62-23.99,1.71.04,3.42.09,5.13.15-.43,13.99-.86,27.99-1.29,41.98-1.66-.05-3.33-.1-4.99-.14-7.93-11.59-16.13-23.09-24.6-34.48Z"/>
    <path class="cls-1" d="M550.31,31.95c-1.75,3.64-3.49,7.29-5.2,10.94-1.74-.07-3.49-.14-5.23-.2,6.48-13.77,13.21-27.49,20.17-41.13,1.86.1,3.71.2,5.57.31,5.39,14.34,10.54,28.72,15.44,43.13-1.74-.13-3.48-.26-5.23-.38-1.3-3.82-2.61-7.64-3.95-11.46-7.19-.48-14.38-.88-21.57-1.21ZM566.25,17.35c-1.43-3.93-3.64-10.01-3.7-10.07-.04,0-.08,0-.12,0-.07.06-2.94,5.84-4.74,9.54-1.77,3.59-3.53,7.19-5.27,10.79,5.96.28,11.92.62,17.88,1-1.33-3.75-2.67-7.5-4.04-11.25Z"/>
    <path class="cls-1" d="M606.16,5.02c9.8.95,19.58,2.03,29.36,3.24-.19,1.51-.37,3.02-.56,4.52-8.06-1-16.13-1.91-24.2-2.73-.44,4.38-.89,8.75-1.33,13.13,6.22.63,12.43,1.31,18.64,2.05-.18,1.51-.36,3.02-.54,4.53-6.18-.74-12.37-1.42-18.56-2.05-.51,5.01-1.02,10.03-1.52,15.04,7.87.8,15.73,1.68,23.58,2.66-.19,1.51-.37,3.02-.56,4.52-9.43-1.17-18.88-2.22-28.34-3.13,1.35-13.93,2.69-27.87,4.04-41.8Z"/>
    <path class="cls-1" d="M643.54,9.28c1.68.22,3.36.45,5.04.68-1.69,12.36-3.38,24.73-5.06,37.09,7.38,1.01,14.76,2.1,22.13,3.26-.24,1.5-.48,3-.71,4.5-8.94-1.42-17.9-2.72-26.87-3.9,1.83-13.88,3.66-27.76,5.49-41.64Z"/>
  </g>
</svg>